<svg width="600" height="400" xmlns="http://www.w3.org/2000/svg">
  <!-- Background -->
  <rect width="600" height="400" fill="#f8f9fa"/>
  
  <!-- Header -->
  <rect x="0" y="0" width="600" height="50" fill="#6c5ce7"/>
  <text x="20" y="30" font-family="Arial, sans-serif" font-size="16" font-weight="bold" fill="white">Document Processor - Computer Vision OCR</text>
  
  <!-- Upload Area -->
  <rect x="20" y="70" width="280" height="180" fill="white" stroke="#6c5ce7" stroke-width="2" stroke-dasharray="10,5" rx="8"/>
  <text x="90" y="140" font-family="Arial, sans-serif" font-size="14" font-weight="bold" fill="#6c5ce7">📄 Drop documents here</text>
  <text x="80" y="160" font-family="Arial, sans-serif" font-size="12" fill="#666">or click to browse files</text>
  <text x="60" y="180" font-family="Arial, sans-serif" font-size="10" fill="#999">Supports: PDF, PNG, JPG, TIFF</text>
  <text x="85" y="195" font-family="Arial, sans-serif" font-size="10" fill="#999">Max size: 10MB per file</text>
  
  <!-- Browse Button -->
  <rect x="120" y="210" width="80" height="30" fill="#6c5ce7" rx="15"/>
  <text x="145" y="230" font-family="Arial, sans-serif" font-size="12" font-weight="bold" fill="white">Browse</text>
  
  <!-- Processing Status -->
  <rect x="320" y="70" width="260" height="180" fill="white" stroke="#e9ecef" stroke-width="1" rx="4"/>
  <text x="330" y="90" font-family="Arial, sans-serif" font-size="14" font-weight="bold" fill="#333">Processing Status</text>
  
  <!-- Document Item 1 -->
  <rect x="330" y="105" width="240" height="40" fill="#e8f5e8" stroke="#4caf50" stroke-width="1" rx="4"/>
  <text x="340" y="120" font-family="Arial, sans-serif" font-size="11" font-weight="bold" fill="#2e7d32">✓ invoice_001.pdf</text>
  <text x="340" y="135" font-family="Arial, sans-serif" font-size="9" fill="#666">OCR Complete - 94% confidence</text>
  <rect x="520" y="115" width="40" height="15" fill="#4caf50" rx="7"/>
  <text x="535" y="125" font-family="Arial, sans-serif" font-size="8" fill="white">94%</text>
  
  <!-- Document Item 2 -->
  <rect x="330" y="155" width="240" height="40" fill="#fff3e0" stroke="#ff9800" stroke-width="1" rx="4"/>
  <text x="340" y="170" font-family="Arial, sans-serif" font-size="11" font-weight="bold" fill="#f57c00">⟳ contract_v2.png</text>
  <text x="340" y="185" font-family="Arial, sans-serif" font-size="9" fill="#666">Processing... Enhancement phase</text>
  <rect x="520" y="165" width="40" height="15" fill="#ff9800" rx="7"/>
  <text x="535" y="175" font-family="Arial, sans-serif" font-size="8" fill="white">67%</text>
  
  <!-- Document Item 3 -->
  <rect x="330" y="205" width="240" height="40" fill="#ffebee" stroke="#f44336" stroke-width="1" rx="4"/>
  <text x="340" y="220" font-family="Arial, sans-serif" font-size="11" font-weight="bold" fill="#c62828">⚠ handwritten.jpg</text>
  <text x="340" y="235" font-family="Arial, sans-serif" font-size="9" fill="#666">Low quality - Manual review needed</text>
  <rect x="520" y="215" width="40" height="15" fill="#f44336" rx="7"/>
  <text x="535" y="225" font-family="Arial, sans-serif" font-size="8" fill="white">42%</text>
  
  <!-- OCR Results Preview -->
  <rect x="20" y="270" width="280" height="110" fill="white" stroke="#e9ecef" stroke-width="1" rx="4"/>
  <text x="30" y="290" font-family="Arial, sans-serif" font-size="14" font-weight="bold" fill="#333">Extracted Text Preview</text>
  
  <rect x="30" y="300" width="260" height="70" fill="#f8f9fa" stroke="#ddd" stroke-width="1" rx="2"/>
  <text x="35" y="315" font-family="Courier, monospace" font-size="10" fill="#333">INVOICE #INV-2024-0156</text>
  <text x="35" y="330" font-family="Courier, monospace" font-size="10" fill="#333">Date: March 15, 2024</text>
  <text x="35" y="345" font-family="Courier, monospace" font-size="10" fill="#333">Amount: $1,247.50</text>
  <text x="35" y="360" font-family="Courier, monospace" font-size="10" fill="#333">Vendor: TechSupply Corp...</text>
  
  <!-- Export Options -->
  <rect x="320" y="270" width="260" height="110" fill="white" stroke="#e9ecef" stroke-width="1" rx="4"/>
  <text x="330" y="290" font-family="Arial, sans-serif" font-size="14" font-weight="bold" fill="#333">Export Options</text>
  
  <!-- Export Buttons -->
  <rect x="330" y="305" width="50" height="25" fill="#17a2b8" rx="4"/>
  <text x="345" y="320" font-family="Arial, sans-serif" font-size="10" font-weight="bold" fill="white">TXT</text>
  
  <rect x="390" y="305" width="50" height="25" fill="#28a745" rx="4"/>
  <text x="405" y="320" font-family="Arial, sans-serif" font-size="10" font-weight="bold" fill="white">CSV</text>
  
  <rect x="450" y="305" width="50" height="25" fill="#ffc107" rx="4"/>
  <text x="465" y="320" font-family="Arial, sans-serif" font-size="10" font-weight="bold" fill="black">JSON</text>
  
  <rect x="510" y="305" width="50" height="25" fill="#6f42c1" rx="4"/>
  <text x="525" y="320" font-family="Arial, sans-serif" font-size="10" font-weight="bold" fill="white">XML</text>
  
  <!-- Processing Stats -->
  <text x="330" y="350" font-family="Arial, sans-serif" font-size="11" fill="#666">Processing Statistics:</text>
  <text x="330" y="365" font-family="Arial, sans-serif" font-size="10" fill="#666">• Average accuracy: 87.5%</text>
  <text x="470" y="365" font-family="Arial, sans-serif" font-size="10" fill="#666">• Processing speed: 3.2s/page</text>
  
  <!-- Watermark -->
  <text x="450" y="395" font-family="Arial, sans-serif" font-size="8" fill="#adb5bd">Document Processor Interface Preview</text>
</svg>